<?xml version="1.0" encoding="UTF-8" standalone="no"?>
<svg xmlns:osb="http://www.openswatchbook.org/uri/2009/osb" xmlns:dc="http://purl.org/dc/elements/1.1/" xmlns:cc="http://creativecommons.org/ns#" xmlns:rdf="http://www.w3.org/1999/02/22-rdf-syntax-ns#" xmlns:svg="http://www.w3.org/2000/svg" xmlns="http://www.w3.org/2000/svg" xmlns:xlink="http://www.w3.org/1999/xlink" xmlns:sodipodi="http://sodipodi.sourceforge.net/DTD/sodipodi-0.dtd" xmlns:inkscape="http://www.inkscape.org/namespaces/inkscape" width="816" height="1056" viewBox="0 0 215.9 279.40001" version="1.1" id="svg1431" inkscape:version="1.0.1 (0767f8302a, 2020-10-17)" sodipodi:docname="logo.svg" inkscape:export-filename="/home/ayoub/Desktop/Courses/GADS Community Project/Logo.png" inkscape:export-xdpi="96" inkscape:export-ydpi="96">
  <defs id="defs1425">
    <linearGradient inkscape:collect="always" id="linearGradient4429">
      <stop style="stop-color:#000000;stop-opacity:1;" offset="0" id="stop4425" />
      <stop style="stop-color:#000000;stop-opacity:0;" offset="1" id="stop4427" />
    </linearGradient>
    <marker style="overflow:visible" id="marker4345" refX="0.0" refY="0.0" orient="auto" inkscape:stockid="Arrow1Lstart" inkscape:isstock="true">
      <path transform="scale(0.8) translate(12.5,0)" style="fill-rule:evenodd;stroke:none;stroke-width:1pt;stroke-opacity:1;fill:#000000;fill-opacity:1" d="M 0.0,0.0 L 5.0,-5.0 L -12.5,0.0 L 5.0,5.0 L 0.0,0.0 z " id="path4343" />
    </marker>
    <marker style="overflow:visible" id="marker1898" refX="0.0" refY="0.0" orient="auto" inkscape:stockid="Arrow1Lstart" inkscape:isstock="true">
      <path transform="scale(0.8) translate(12.5,0)" style="fill-rule:evenodd;stroke:none;stroke-width:1pt;stroke-opacity:1;fill:#ff0000;fill-opacity:1" d="M 0.0,0.0 L 5.0,-5.0 L -12.5,0.0 L 5.0,5.0 L 0.0,0.0 z " id="path1896" />
    </marker>
    <marker style="overflow:visible" id="marker1882" refX="0.0" refY="0.0" orient="auto" inkscape:stockid="Arrow1Lstart" inkscape:isstock="true">
      <path transform="scale(0.8) translate(12.5,0)" style="fill-rule:evenodd;stroke:none;stroke-width:1pt;stroke-opacity:1;fill:#ff0000;fill-opacity:1" d="M 0.0,0.0 L 5.0,-5.0 L -12.5,0.0 L 5.0,5.0 L 0.0,0.0 z " id="path1880" />
    </marker>
    <linearGradient inkscape:collect="always" id="linearGradient7889">
      <stop style="stop-color:#006680;stop-opacity:1" offset="0" id="stop7885" />
      <stop style="stop-color:#aa0000;stop-opacity:1" offset="1" id="stop7887" />
    </linearGradient>
    <rect x="145.1404" y="83.138229" width="356.01346" height="179.6297" id="rect7654" />
    <linearGradient id="linearGradient4222" osb:paint="solid">
      <stop style="stop-color:#000000;stop-opacity:1;" offset="0" id="stop4220" />
    </linearGradient>
    <linearGradient inkscape:collect="always" id="linearGradient2193">
      <stop style="stop-color:#ff0000;stop-opacity:1" offset="0" id="stop2189" />
      <stop style="stop-color:#006680;stop-opacity:0.99890562" offset="1" id="stop2191" />
    </linearGradient>
    <linearGradient inkscape:collect="always" id="linearGradient2177">
      <stop style="stop-color:#550000;stop-opacity:1;" offset="0" id="stop2173" />
      <stop style="stop-color:#d40000;stop-opacity:1" offset="1" id="stop2175" />
    </linearGradient>
    <linearGradient inkscape:collect="always" xlink:href="#linearGradient7889" id="linearGradient2187" x1="204.12788" y1="529.64838" x2="391.41281" y2="436.87228" gradientUnits="userSpaceOnUse" gradientTransform="matrix(0.4409722,0,0,0.4409722,-17.11299,-49.943322)" />
    <linearGradient inkscape:collect="always" xlink:href="#linearGradient2193" id="linearGradient2195" x1="133.60742" y1="474.85257" x2="396.10742" y2="474.85257" gradientUnits="userSpaceOnUse" gradientTransform="matrix(0.4409722,0,0,0.4409722,-17.11299,-49.943322)" />
    <linearGradient inkscape:collect="always" xlink:href="#linearGradient2177" id="linearGradient8195" gradientUnits="userSpaceOnUse" x1="35.368015" y1="113.61022" x2="114.7253" y2="113.61022" gradientTransform="matrix(0.88076795,0,0,0.88076795,41.859114,39.480879)" />
    <filter inkscape:collect="always" style="color-interpolation-filters:sRGB" id="filter2564" x="-0.00010347865" width="1.000207" y="-6.1058121e-05" height="1.0001221">
      <feGaussianBlur inkscape:collect="always" stdDeviation="0.0030871817" id="feGaussianBlur2566" />
    </filter>
    <clipPath clipPathUnits="userSpaceOnUse" id="clipPath2716">
      <path d="m 55.192709,110.78638 6.14383,-2.87784 c 6.885872,-3.22543 29.234743,-11.608626 29.234743,-26.622822 0,-4.691936 -0.441667,-8.864001 -1.916275,-11.813219 -1.34055,-3.083272 -3.1503,-5.42924 -5.429237,-7.037903 -2.278944,-1.74272 -4.960051,-2.949217 -8.043319,-3.619494 -2.949216,-0.670276 -6.09952,-1.005415 -9.450902,-1.005415 -2.010831,0 -4.088688,0.06703 -6.233573,0.201082 -2.01083,0.134057 -2.187907,0.335139 -4.198736,0.60325 z m 0.0013,14.85794 0.503404,37.55098 c 2.54705,0.40216 2.915823,0.33351 5.328817,0.60161 2.547052,0.26811 8.08992,0.67371 10.493339,0.88847 3.518185,0.31436 4.526449,0.63386 7.877833,-0.17047 3.351378,-0.80433 5.839159,-2.16168 8.252154,-4.03845 2.547049,-1.87677 4.49085,-4.7804 5.831407,-7.99773 1.132902,-2.9666 1.506504,-5.5364 1.400543,-7.32275 -0.175439,-2.95775 -0.971388,-7.83272 -3.641363,-11.45674 -1.229473,-1.61198 -6.163099,-8.55759 -16.743967,-8.37961 z M 35.368016,46.146873 c 4.691937,-1.072443 9.4509,-1.876775 14.276893,-2.412996 4.960047,-0.670277 9.853067,-1.005415 14.679057,-1.005415 6.032493,0 11.729842,0.603249 17.092054,1.809747 5.496269,1.072443 10.322262,3.016245 14.477977,5.831407 3.203914,1.521253 7.790073,5.093889 12.629123,12.608144 2.54705,4.423825 3.42871,11.022518 3.42871,17.725285 0,8.31143 -3.19418,13.698075 -7.93951,19.697285 -5.255778,4.66916 -7.313904,5.96208 -12.810169,8.50913 6.836815,2.68111 11.286679,7.10517 15.710509,12.60144 4.42383,5.49627 7.81264,13.9931 7.81264,23.64509 0,7.23899 -0.24066,4.36393 -2.30577,13.33056 -2.27894,4.96005 -5.12101,11.60746 -9.41078,14.82479 -4.289775,3.08327 -9.28238,7.98548 -15.314871,9.46009 -5.898437,1.34055 -14.656313,1.72054 -21.761248,1.72054 -4.691936,0 -9.584954,-0.26811 -14.679058,-0.80433 -5.094103,-0.53622 -10.389288,-1.34055 -15.885557,-2.413 z" style="font-style:normal;font-variant:normal;font-weight:normal;font-stretch:normal;font-size:201.083px;line-height:1.25;font-family:'Ubuntu Condensed';-inkscape-font-specification:'Ubuntu Condensed, Normal';font-variant-ligatures:normal;font-variant-caps:normal;font-variant-numeric:normal;font-variant-east-asian:normal;fill:url(#linearGradient2720);fill-opacity:1;stroke:none;stroke-width:0.264584" id="path2718" sodipodi:nodetypes="csscccsccccccssccscscccscccsccsscccsscc" />
    </clipPath>
    <linearGradient inkscape:collect="always" xlink:href="#linearGradient2177" id="linearGradient2720" gradientUnits="userSpaceOnUse" x1="35.368015" y1="113.61022" x2="114.7253" y2="113.61022" />
    <filter inkscape:collect="always" style="color-interpolation-filters:sRGB" id="filter2742" x="-7.7273684e-05" width="1.0001545" y="-7.6332088e-05" height="1.0001527">
      <feGaussianBlur inkscape:collect="always" stdDeviation="0.0042594434" id="feGaussianBlur2744" />
    </filter>
    <clipPath clipPathUnits="userSpaceOnUse" id="clipPath2748">
      <path d="m 74.874854,134.70064 10.239717,-4.7964 c 11.476453,-5.37572 48.724569,-19.34771 48.724569,-44.371371 0,-7.819893 -0.73611,-14.773333 -3.19379,-19.688697 -2.23425,-5.138787 -5.2505,-9.048734 -9.04873,-11.729839 -3.79824,-2.904532 -8.26675,-4.91536 -13.40553,-6.032489 -4.91536,-1.117127 -10.165866,-1.675691 -15.751503,-1.675691 -3.351385,0 -6.814479,0.111715 -10.389288,0.335137 -3.351382,0.223427 -3.646512,0.558564 -6.997893,1.005417 z m 0.0021,24.76323 0.839007,62.58496 c 4.245083,0.67027 4.859705,0.55585 8.881361,1.00269 4.245087,0.44685 13.483199,1.12285 17.488898,1.48078 5.86364,0.52393 7.54408,1.05643 13.12972,-0.28412 5.58563,-1.34055 9.73193,-3.6028 13.75359,-6.73075 4.24508,-3.12795 7.48475,-7.96733 9.71901,-13.32955 1.88817,-4.94433 2.51084,-9.22733 2.33424,-12.20458 -0.2924,-4.92958 -1.61898,-13.05453 -6.06894,-19.09456 -2.04912,-2.68664 -10.27183,-14.26265 -27.90661,-13.96602 z M 41.8337,26.96813 c 7.819896,-1.787405 15.751501,-3.127958 23.794821,-4.02166 8.266745,-1.117128 16.421778,-1.675692 24.465095,-1.675692 10.054154,0 19.549734,1.005415 28.486754,3.016245 9.16045,1.787405 17.20377,5.027075 24.12996,9.719011 6.92619,4.468511 12.40012,10.501003 16.42177,18.097471 4.24509,7.373041 10.34129,21.286965 10.34129,32.458243 0,13.852382 -5.32364,22.830122 -13.23252,32.828802 -8.75963,7.78194 -12.18984,9.9368 -21.35028,14.18189 11.39469,4.46851 18.81113,11.84195 26.18418,21.0024 7.37305,9.16045 13.02107,23.32183 13.02107,39.40848 0,12.06498 -0.4011,7.27321 -3.84295,22.2176 -3.79824,8.26675 -8.53502,19.34576 -15.68464,24.70798 -7.14962,5.13878 -15.47063,13.30913 -25.52478,15.76682 -9.83073,2.23425 -24.42719,2.86756 -36.268746,2.86756 -7.819893,0 -15.974923,-0.44685 -24.465095,-1.34055 -8.490173,-0.8937 -17.315479,-2.23425 -26.475929,-4.02166 z" style="font-style:normal;font-variant:normal;font-weight:normal;font-stretch:normal;font-size:201.083px;line-height:1.25;font-family:'Ubuntu Condensed';-inkscape-font-specification:'Ubuntu Condensed, Normal';font-variant-ligatures:normal;font-variant-caps:normal;font-variant-numeric:normal;font-variant-east-asian:normal;fill:url(#linearGradient2752);fill-opacity:1;stroke:none;stroke-width:0.440973" id="path2750" sodipodi:nodetypes="csscccsccccccssccscscccscccsccsscccsscc" />
    </clipPath>
    <linearGradient inkscape:collect="always" xlink:href="#linearGradient2177" id="linearGradient2752" gradientUnits="userSpaceOnUse" gradientTransform="matrix(1.6666666,0,0,1.6666666,-17.11299,-49.943322)" x1="35.368015" y1="113.61022" x2="114.7253" y2="113.61022" />
    <linearGradient inkscape:collect="always" xlink:href="#linearGradient4429" id="linearGradient4431" x1="494.43387" y1="565.5658" x2="608.58728" y2="712.37103" gradientUnits="userSpaceOnUse" />
  </defs>
  <sodipodi:namedview id="base" pagecolor="#ffffff" bordercolor="#666666" borderopacity="1.0" inkscape:pageopacity="0.0" inkscape:pageshadow="2" inkscape:zoom="0.43249679" inkscape:cx="384.60028" inkscape:cy="394.39824" inkscape:document-units="px" inkscape:current-layer="g4594" inkscape:document-rotation="0" showgrid="false" inkscape:showpageshadow="true" showborder="true" inkscape:object-paths="true" inkscape:snap-intersection-paths="true" inkscape:snap-smooth-nodes="true" inkscape:snap-nodes="true" inkscape:window-width="1280" inkscape:window-height="749" inkscape:window-x="0" inkscape:window-y="27" inkscape:window-maximized="1" units="px" showguides="false" inkscape:guide-bbox="true" inkscape:snap-others="true" inkscape:snap-global="false">
    <inkscape:grid type="xygrid" id="grid7915" />
    <sodipodi:guide position="129.66192,192.87627" orientation="-0.70710678,-0.70710678" id="guide4051" />
    <sodipodi:guide position="84.681957,176.97586" orientation="-0.70710678,-0.70710678" id="guide4053" />
    <sodipodi:guide position="133.52091,135.92889" orientation="-0.70710678,-0.70710678" id="guide4055" />
    <sodipodi:guide position="84.399872,86.24747" orientation="-0.70710678,-0.70710678" id="guide4057" />
    <sodipodi:guide position="72.990441,80.175738" orientation="-0.70710678,-0.70710678" id="guide4059" />
  </sodipodi:namedview>
  <metadata id="metadata1428">
    <rdf:RDF>
      <cc:Work rdf:about="">
        <dc:format>image/svg+xml</dc:format>
        <dc:type rdf:resource="http://purl.org/dc/dcmitype/StillImage" />
        <dc:title />
      </cc:Work>
    </rdf:RDF>
  </metadata>
  <g inkscape:label="Layer 1" inkscape:groupmode="layer" id="layer1">
    <path id="path2251" style="opacity:1;fill:none;fill-opacity:1;stroke:#800000;stroke-width:0.234685;stroke-miterlimit:4;stroke-dasharray:0, 2.58154;stroke-dashoffset:2.34685;stroke-opacity:0" d="m -22.637072,42.99185 a 79.375001,79.375001 0 0 1 -79.375008,79.375 79.375001,79.375001 0 0 1 -79.37499,-79.375 79.375001,79.375001 0 0 1 79.37499,-79.375002 79.375001,79.375001 0 0 1 79.375008,79.375002 z" />
    <g id="g4594" transform="matrix(1.6374718,0,0,1.6374718,-107.22804,-105.33423)">
      <g id="g1642">
        <path id="path4061" style="opacity:0.206381;fill:url(#linearGradient4431);fill-opacity:1;stroke:none;stroke-width:0.999999px;stroke-linecap:butt;stroke-linejoin:miter;stroke-opacity:1" d="M 490.06055,327.01953 C 520.13497,525.40895 251.47186,581.91008 275.86914,752.97266 l 82.74024,82.74023 c 16.42663,2.64924 33.03884,3.98031 49.67773,3.98047 161.35551,-8e-5 296.09603,-123.02116 310.73828,-283.71094 z" transform="scale(0.26458334)" sodipodi:nodetypes="cccccc" />
        <g id="g4548">
          <path d="m 90.471082,137.05797 5.411289,-2.53471 c 6.064859,-2.84085 25.749029,-10.2245 25.749029,-23.44853 0,-4.1325 -0.38901,-7.80712 -1.6878,-10.4047 -1.18071,-2.715648 -2.77468,-4.781901 -4.7819,-6.198761 -2.00722,-1.534931 -4.36865,-2.597575 -7.08429,-3.187934 -2.59758,-0.590358 -5.37226,-0.885537 -8.324055,-0.885537 -1.771075,0 -3.601185,0.05904 -5.490331,0.177108 -1.771075,0.118071 -1.927038,0.295178 -3.698113,0.531322 z m 0.0012,13.0864 0.443381,33.0737 c 2.243361,0.35421 2.568164,0.29374 4.693452,0.52988 2.243361,0.23614 7.125345,0.59338 9.242205,0.78253 3.0987,0.27688 3.98675,0.55828 6.93854,-0.15014 2.95178,-0.70843 5.14294,-1.90394 7.26823,-3.55694 2.24336,-1.653 3.9554,-4.21042 5.13612,-7.04415 0.99782,-2.61288 1.32688,-4.87628 1.23355,-6.44964 -0.15452,-2.60509 -0.85557,-6.8988 -3.2072,-10.09072 -1.08288,-1.41979 -5.42826,-7.53726 -14.74755,-7.3805 z M 73.010129,80.125565 c 4.132508,-0.944573 8.32405,-1.653003 12.57463,-2.125289 4.36865,-0.590359 8.678265,-0.885538 12.928843,-0.885538 5.313228,0 10.331268,0.531323 15.054128,1.593967 4.84094,0.944574 9.09152,2.656612 12.75174,5.136117 3.66022,2.361433 6.55298,5.549367 8.67826,9.563803 2.24337,3.896363 5.46497,11.249325 5.46497,17.152905 0,7.32044 -2.81334,12.06483 -6.99287,17.34874 -4.62912,4.11245 -6.44185,5.25121 -11.28278,7.49457 6.02164,2.36143 9.94094,6.25801 13.83731,11.09895 3.89637,4.84094 6.88112,12.32467 6.88112,20.82583 0,6.37587 -0.21196,3.84361 -2.03085,11.74113 -2.00722,4.36866 -4.51042,10.22348 -8.28871,13.0572 -3.7783,2.71565 -8.17562,7.03336 -13.48885,8.33215 -5.19515,1.18071 -12.90881,1.51539 -19.166608,1.51539 -4.132507,0 -8.442121,-0.23614 -12.928844,-0.70843 -4.486722,-0.47228 -9.150552,-1.18071 -13.991489,-2.12529 z" style="font-style:normal;font-variant:normal;font-weight:normal;font-stretch:normal;font-size:201.083px;line-height:1.25;font-family:'Ubuntu Condensed';-inkscape-font-specification:'Ubuntu Condensed, Normal';font-variant-ligatures:normal;font-variant-caps:normal;font-variant-numeric:normal;font-variant-east-asian:normal;fill:url(#linearGradient8195);fill-opacity:1;stroke:none;stroke-width:0.233036" id="path2040" sodipodi:nodetypes="csscccsccccccssccscscccscccsccsscccsscc" />
          <g id="g4303">
            <g id="g2761" transform="matrix(0.52846079,0,0,0.52846079,50.902658,65.873966)">
              <path id="path2736" style="opacity:0.185996;fill:#000000;fill-opacity:1;stroke-width:0.614477;filter:url(#filter2742)" d="m 112.75217,123.88712 c -36.531336,-10e-6 -70.948002,31.56488 -70.948002,68.09621 0,36.53133 23.252232,65.82734 59.783562,65.82734 36.53134,0 72.5081,-29.29601 72.5081,-65.82734 0,-36.53133 -24.81233,-68.09621 -61.34366,-68.09621 z M 107.95,158.91041 c 18.26567,0 33.07291,14.80725 33.07291,33.07292 0,18.26566 -14.80725,33.07291 -33.07291,33.07291 -18.265665,0 -33.072914,-14.80724 -33.072917,-33.07291 -3e-6,-18.26567 14.807248,-33.07292 33.072917,-33.07292 z" sodipodi:nodetypes="ssssssssss" clip-path="url(#clipPath2748)" />
              <path id="path1433" style="fill:url(#linearGradient2187);fill-opacity:1;stroke-width:0.614477" d="M 107.95,125.8375 A 66.14583,66.14583 0 0 0 41.804168,191.98333 66.14583,66.14583 0 0 0 107.95,258.12916 66.14583,66.14583 0 0 0 174.09583,191.98333 66.14583,66.14583 0 0 0 107.95,125.8375 Z m 0,33.07291 A 33.072915,33.072915 0 0 1 141.02291,191.98333 33.072915,33.072915 0 0 1 107.95,225.05624 33.072915,33.072915 0 0 1 74.877083,191.98333 33.072915,33.072915 0 0 1 107.95,158.91041 Z" />
            </g>
            <g id="g2783" transform="matrix(0.52846079,0,0,0.52846079,50.902658,65.873966)">
              <path id="path1608" style="opacity:0.18;fill:#000000;fill-opacity:1;stroke-width:0.276513;marker-start:url(#Arrow1Lstart);filter:url(#filter2564)" d="m 35.424331,63.496194 2.148465,81.659796 c 7.2e-5,21.81449 17.606341,39.53962 39.420334,39.68647 0.06597,5e-4 0.131945,8.3e-4 0.197919,0.001 h 0.06925 c 16.439097,0 29.765621,-13.32652 29.765621,-29.76562 -2.3e-4,-16.36371 -14.287367,-29.40659 -30.650737,-29.51256 10.883646,0.10573 20.728809,8.70652 20.728865,19.59068 10e-7,10.9594 -8.884349,19.84375 -19.843749,19.84375 -10.959401,0 -21.909499,-8.5644 -21.909499,-19.5238 V 86.596334 c 0,-10.993426 -4.676383,-18.325522 -15.167641,-21.610209 z" sodipodi:nodetypes="ccccscccssssc" transform="matrix(1.6666666,0,0,1.6666666,-17.11299,-49.943322)" clip-path="url(#clipPath2716)" />
              <path id="path2023" style="fill:url(#linearGradient2195);fill-opacity:1;stroke-width:0.460856" d="M 41.804168,60.777733 V 191.98333 a 66.14583,66.14583 0 0 0 65.700552,66.14411 66.14583,66.14583 0 0 0 0.32987,0.002 66.14583,66.14583 0 0 0 0.11541,0 49.609377,49.609377 0 0 0 49.60937,-49.60937 49.609377,49.609377 0 0 0 -49.28811,-49.60765 33.072914,33.072914 0 0 1 32.75165,33.07119 A 33.072914,33.072914 0 0 1 107.95,225.05629 33.072914,33.072914 0 0 1 74.877083,191.98337 V 93.850648 c 0,-18.322377 -14.75052,-33.072915 -33.072915,-33.072915 z" />
            </g>
          </g>
        </g>
      </g>
    </g>
  </g>
</svg>
